<?xml version="1.0" encoding="utf-8"?>
<!-- Generator: Adobe Illustrator 16.0.0, SVG Export Plug-In . SVG Version: 6.00 Build 0)  -->
<!DOCTYPE svg PUBLIC "-//W3C//DTD SVG 1.1//EN" "http://www.w3.org/Graphics/SVG/1.1/DTD/svg11.dtd">
<svg version="1.1" xmlns="http://www.w3.org/2000/svg" xmlns:xlink="http://www.w3.org/1999/xlink" x="0px" y="0px" width="256px"
	 height="256px" viewBox="0 0 256 256" enable-background="new 0 0 256 256" xml:space="preserve">
<g id="Calque_1" display="none">
	<path display="inline" fill="#57BFCA" d="M406.34,28.287c-55.349,0-100.22,44.871-100.22,100.217
		c0,28.059,11.543,53.406,30.12,71.6L476.478,56.947C458.398,39.227,433.653,28.287,406.34,28.287z"/>
	<path display="inline" fill="#3AB9C4" d="M476.478,56.947L336.24,200.104c18.075,17.695,42.805,28.621,70.1,28.621
		c55.351,0,100.218-44.871,100.218-100.221C506.558,100.469,495.032,75.141,476.478,56.947z"/>
	<g display="inline">
		<defs>
			<path id="SVGID_1_" d="M506.558,128.504c0,55.35-44.867,100.221-100.218,100.221c-55.349,0-100.22-44.871-100.22-100.221
				c0-55.346,44.871-100.217,100.22-100.217C461.69,28.287,506.558,73.158,506.558,128.504z"/>
		</defs>
		<clipPath id="SVGID_2_">
			<use xlink:href="#SVGID_1_"  overflow="visible"/>
		</clipPath>
		<polyline clip-path="url(#SVGID_2_)" fill="#1FAAB1" points="463.165,83.93 527.11,168.32 435.69,258.584 358.353,160.994 
			395.412,142.174 430.941,135.799 		"/>
	</g>
	<path display="inline" fill="#1A8F95" d="M360.182,164.234c37.708,25.543,96.71,3.039,97.313-57.785
		c10.344-9.125,10.344-9.125,10.344-9.125h-10.344l7.908-9.727l-17.029,4.254c-1.217-10.949-38.321-17.027-38.928,18.855
		c-14.597,2.434-40.751-10.949-44.397-20.072c-6.081,12.166,5.474,25.549,12.771,27.98c-4.869,2.432-18.852-2.436-18.852-2.436
		s4.865,17.643,16.422,17.643c0.605,4.865-9.735,4.256-9.735,4.256s9.127,14.598,17.032,14.598
		C376.605,159.975,369.914,163.016,360.182,164.234z"/>
	<path display="inline" fill="#FFFFFF" d="M357.941,160.566c37.708,25.547,96.71,3.045,97.318-57.781
		c10.338-9.123,10.338-9.123,10.338-9.123H455.26l7.905-9.732l-17.029,4.258c-1.214-10.947-38.319-17.031-38.932,18.855
		c-14.593,2.434-40.747-10.947-44.396-20.07c-6.081,12.162,5.471,25.541,12.771,27.979c-4.867,2.434-18.852-2.438-18.852-2.438
		s4.867,17.643,16.421,17.643c0.608,4.867-9.736,4.258-9.736,4.258s9.129,14.596,17.034,14.596
		C374.365,156.311,367.673,159.354,357.941,160.566z"/>
	<path display="inline" fill="#44A3C9" d="M689.494,27.275c-55.616,0-100.705,45.086-100.705,100.703
		c0,28.191,11.599,53.664,30.27,71.943L759.975,56.076C741.804,38.268,716.939,27.275,689.494,27.275z"/>
	<path display="inline" fill="#4099BE" d="M759.975,56.076L619.059,199.922c18.161,17.783,43.008,28.76,70.436,28.76
		c55.618,0,100.702-45.088,100.702-100.703C790.196,99.805,778.616,74.35,759.975,56.076z"/>
	<g display="inline">
		<defs>
			<circle id="SVGID_3_" cx="689.493" cy="127.979" r="100.704"/>
		</defs>
		<clipPath id="SVGID_4_">
			<use xlink:href="#SVGID_3_"  overflow="visible"/>
		</clipPath>
		<polyline clip-path="url(#SVGID_4_)" fill="#2F83A5" points="744.083,81.061 810.85,167.984 718.988,258.688 640.979,179.133 
			668.783,177.072 706.549,171.58 733.325,172.609 741.224,140.682 737.104,90.559 		"/>
	</g>
	<path display="inline" fill="#FFFFFF" d="M729.727,74.879h-73.138c-10.772,0-19.506,8.73-19.506,19.502v73.145
		c0,10.77,8.733,19.502,19.506,19.502h73.138c10.774,0,19.506-8.732,19.506-19.502V94.381
		C749.232,83.609,740.501,74.879,729.727,74.879z M668.122,92.404c4.424,0,8.014,3.584,8.014,8.01c0,4.428-3.59,8.012-8.014,8.012
		c-4.421,0-8.011-3.584-8.011-8.012C660.111,95.988,663.701,92.404,668.122,92.404z M676.515,162.748h-16.369v-48.279h16.369
		V162.748z M732.271,162.748h-16.366v-28.309c0-2.365-0.682-4.125-2.026-5.23c-1.364-1.17-2.997-1.699-5.173-1.699
		c-2.182,0-3.837,0.535-5.201,1.68c-1.415,1.158-2.088,2.863-2.088,5.25v28.309h-16.369v-48.279h16.369v1.779
		c3.073-1.541,6.621-2.32,10.606-2.32c5.009,0,9.62,1.488,13.71,4.414c4.156,3.035,6.347,7.424,6.538,13.055V162.748z"/>
	<path display="inline" fill="#E88081" d="M967.09,28.092c-55.349,0-100.215,44.867-100.215,100.215
		c0,28.057,11.538,53.404,30.116,71.6l140.232-143.158C1019.149,39.031,994.403,28.092,967.09,28.092z"/>
	<path display="inline" fill="#DF7373" d="M1037.224,56.748L896.991,199.906c18.074,17.697,42.805,28.617,70.099,28.617
		c55.349,0,100.218-44.869,100.218-100.217C1067.308,100.273,1055.783,74.939,1037.224,56.748z"/>
	<g display="inline">
		<defs>
			<circle id="SVGID_5_" cx="967.091" cy="128.307" r="100.216"/>
		</defs>
		<clipPath id="SVGID_6_">
			<use xlink:href="#SVGID_5_"  overflow="visible"/>
		</clipPath>
		<polyline clip-path="url(#SVGID_6_)" fill="#C25656" points="991.918,74.215 1087.86,168.121 1003.191,252.557 930.079,172.611 
			972.106,175.686 990.21,153.818 968.688,122.045 976.887,112.141 976.205,78.656 		"/>
	</g>
	<g display="inline">
		<path fill-rule="evenodd" clip-rule="evenodd" fill="#AF4848" d="M981.271,80.066c10.873,8.635,11.342,25.557,1.122,35.092
			c-2.094,1.953-4.407,3.689-6.403,5.73c-2.646,2.697-2.704,5.141,0.007,7.791c3.034,2.965,6.396,5.588,9.572,8.404
			c7.375,6.547,10.354,14.549,8.043,24.326c-1.831,7.709-6.566,13.078-13.635,16.205c-12.704,5.615-25.783,6.051-38.776,1.174
			c-10.731-4.023-15.655-13.785-12.853-24.234c1.479-5.502,5.137-9.193,9.99-11.805c6.788-3.66,14.216-4.826,21.795-5.285
			c1.26-0.072,2.53-0.012,4.595-0.012c-2.069-4.457-6.159-7.807-3.982-13.041c-2.755-0.203-4.961-0.238-7.124-0.551
			c-8.969-1.281-16.124-5.268-18.553-14.566c-2.608-9.963-1.31-19.297,7.001-26.461c6.021-5.188,13.34-7.576,21.115-7.873
			c9.869-0.369,19.753-0.105,29.634-0.098c0.393,0,0.793,0.133,1.726,0.305C991.047,79.959,985.24,77.555,981.271,80.066z
			 M962.456,141.916c-6.202,0.15-12.638,1.941-17.801,6.943c-6.685,6.484-6.095,15.27,1.297,20.871
			c9.412,7.133,25.774,6.014,34.121-2.334c6.548-6.543,5.917-15.373-1.548-20.857C974.004,143.217,968.812,141.936,962.456,141.916z
			 M975.716,103.924c-0.631-9.348-3.018-16.32-9.654-21.125c-5.675-4.104-12.158-2.971-15.861,2.551
			c-6.311,9.385-1.708,26.48,8.44,31.387c5.626,2.723,11.577,1.035,14.392-4.568C974.521,109.207,975.128,105.809,975.716,103.924z"
			/>
		<polygon fill="#AF4848" points="1023.596,120.523 1023.596,104.42 1012.958,104.42 1012.958,120.523 996.452,120.523 
			996.452,130.363 1012.958,130.363 1012.958,148.154 1023.596,148.154 1023.596,130.363 1040.02,130.363 1040.02,120.523 		"/>
	</g>
	<g display="inline">
		<path fill-rule="evenodd" clip-rule="evenodd" fill="#FFFFFF" d="M978.882,79.043c10.871,8.633,11.34,25.557,1.121,35.09
			c-2.097,1.953-4.406,3.689-6.408,5.729c-2.639,2.699-2.698,5.145,0.011,7.793c3.034,2.963,6.397,5.586,9.568,8.404
			c7.377,6.549,10.358,14.551,8.045,24.326c-1.827,7.709-6.566,13.08-13.635,16.205c-12.704,5.619-25.779,6.051-38.771,1.174
			c-10.733-4.023-15.653-13.785-12.854-24.234c1.478-5.502,5.135-9.191,9.989-11.805c6.789-3.66,14.215-4.824,21.799-5.283
			c1.259-0.074,2.525-0.012,4.588-0.012c-2.064-4.459-6.154-7.811-3.982-13.043c-2.753-0.203-4.959-0.238-7.124-0.551
			c-8.964-1.281-16.12-5.268-18.553-14.566c-2.608-9.963-1.314-19.293,7.003-26.461c6.024-5.189,13.336-7.578,21.115-7.871
			c9.865-0.371,19.753-0.107,29.631-0.1c0.396,0,0.794,0.135,1.729,0.305C988.655,78.932,982.847,76.529,978.882,79.043z
			 M960.064,140.893c-6.204,0.15-12.636,1.939-17.796,6.941c-6.689,6.484-6.102,15.268,1.287,20.871
			c9.415,7.133,25.781,6.014,34.129-2.334c6.55-6.545,5.919-15.371-1.555-20.857C971.612,142.189,966.423,140.908,960.064,140.893z
			 M973.322,102.9c-0.629-9.35-3.018-16.322-9.654-21.129c-5.673-4.102-12.158-2.967-15.859,2.553
			c-6.31,9.385-1.708,26.482,8.436,31.389c5.632,2.723,11.582,1.031,14.395-4.57C972.129,108.184,972.735,104.785,973.322,102.9z"/>
		<polygon fill="#FFFFFF" points="1021.202,119.502 1021.202,103.393 1010.562,103.393 1010.562,119.502 994.058,119.502 
			994.058,129.336 1010.562,129.336 1010.562,147.129 1021.202,147.129 1021.202,129.336 1037.626,129.336 1037.626,119.502 		"/>
	</g>
	<path display="inline" opacity="0.7" fill="#727271" d="M300.1,590.438c54.854,0,99.362,44.475,99.362,99.332
		c0,54.895-44.508,99.369-99.362,99.369c-54.851,0-99.319-44.475-99.319-99.369C200.78,634.912,245.249,590.438,300.1,590.438z
		 M277.375,749.869c0,5.324,11.146,4.258,15.398,0l52.369-52.367c4.245-4.256,4.245-11.127,0-15.385l-52.369-52.369
		c-4.252-4.242-15.398-5.02-15.398,0C277.375,635.707,277.375,740.947,277.375,749.869z"/>
	<path display="inline" opacity="0.7" fill="#727271" d="M71.212,789.139c-54.855,0-99.362-44.475-99.362-99.336
		c0-54.891,44.506-99.365,99.362-99.365c54.851,0,99.319,44.475,99.319,99.365C170.531,744.664,126.063,789.139,71.212,789.139z
		 M93.938,629.703c0-5.32-11.148-4.254-15.399,0L26.17,682.07c-4.247,4.26-4.247,11.125,0,15.385l52.369,52.369
		c4.251,4.246,15.399,5.02,15.399,0C93.938,743.863,93.938,638.629,93.938,629.703z"/>
</g>
<g id="Calque_2">
	<path fill="#699AD1" d="M125.52,28.979c-55.081,0-99.73,44.652-99.73,99.73c0,27.922,11.481,53.146,29.975,71.252L195.315,57.498
		C177.325,39.865,152.698,28.979,125.52,28.979z"/>
	<path fill="#5491CB" d="M195.315,57.498L55.764,199.961c17.983,17.609,42.597,28.479,69.756,28.479
		c55.081,0,99.733-44.648,99.733-99.73C225.253,100.811,213.78,75.6,195.315,57.498z"/>
	<g>
		<defs>
			<circle id="SVGID_7_" cx="125.521" cy="128.709" r="99.732"/>
		</defs>
		<clipPath id="SVGID_8_">
			<use xlink:href="#SVGID_7_"  overflow="visible"/>
		</clipPath>
		<polyline clip-path="url(#SVGID_8_)" fill="#3987C3" points="144.763,65.703 240.664,177.67 169.04,255.641 104.532,178.4 
			116.455,96.07 116.455,70.686 		"/>
	</g>
	<g>
		<path fill="#33608B" d="M106.142,132.23H89.558v-20.74h16.584V97.871c0-9.807,2.632-17.031,7.891-21.674
			c5.135-4.307,11.581-6.463,19.35-6.463h12.992v19.479h-11.48c-6.061-0.201-8.955,2.664-8.688,8.59v13.688h20.168v20.74h-20.168
			v50.203h-20.064V132.23z"/>
	</g>
	<g>
		<path fill="#FFFFFF" d="M104.532,128.197H87.944v-20.74h16.588V93.838c0-9.807,2.63-17.031,7.89-21.672
			c5.135-4.311,11.582-6.463,19.347-6.463h12.994V85.18h-11.483c-6.057-0.201-8.948,2.666-8.683,8.59v13.688h20.166v20.74h-20.166
			V178.4h-20.064V128.197z"/>
	</g>
</g>
</svg>
