<?xml version="1.0" encoding="utf-8"?>
<!-- Generator: Adobe Illustrator 16.0.0, SVG Export Plug-In . SVG Version: 6.00 Build 0)  -->
<!DOCTYPE svg PUBLIC "-//W3C//DTD SVG 1.1//EN" "http://www.w3.org/Graphics/SVG/1.1/DTD/svg11.dtd">
<svg version="1.1" xmlns="http://www.w3.org/2000/svg" xmlns:xlink="http://www.w3.org/1999/xlink" x="0px" y="0px" width="256px"
	 height="256px" viewBox="0 0 256 256" enable-background="new 0 0 256 256" xml:space="preserve">
<g id="Calque_1" display="none">
	<path display="inline" opacity="0.7" fill="#727271" d="M300.1,590.438c54.854,0,99.362,44.475,99.362,99.332
		c0,54.895-44.508,99.369-99.362,99.369c-54.851,0-99.319-44.475-99.319-99.369C200.78,634.912,245.249,590.438,300.1,590.438z
		 M277.375,749.869c0,5.324,11.146,4.258,15.398,0l52.369-52.367c4.245-4.256,4.245-11.127,0-15.385l-52.369-52.369
		c-4.252-4.242-15.398-5.02-15.398,0C277.375,635.707,277.375,740.947,277.375,749.869z"/>
	<path display="inline" opacity="0.7" fill="#727271" d="M71.212,789.139c-54.855,0-99.362-44.475-99.362-99.336
		c0-54.891,44.506-99.365,99.362-99.365c54.851,0,99.319,44.475,99.319,99.365C170.531,744.664,126.063,789.139,71.212,789.139z
		 M93.938,629.703c0-5.32-11.148-4.254-15.399,0L26.17,682.07c-4.247,4.26-4.247,11.125,0,15.385l52.369,52.369
		c4.251,4.246,15.399,5.02,15.399,0C93.938,743.863,93.938,638.629,93.938,629.703z"/>
</g>
<g id="Calque_2">
	<path fill="#E88081" d="M127.998,28.092c-55.349,0-100.215,44.867-100.215,100.215c0,28.057,11.538,53.404,30.116,71.6
		L198.132,56.748C180.058,39.031,155.312,28.092,127.998,28.092z"/>
	<path fill="#DF7373" d="M198.132,56.748L57.899,199.906c18.074,17.697,42.805,28.617,70.099,28.617
		c55.349,0,100.218-44.869,100.218-100.217C228.216,100.273,216.691,74.939,198.132,56.748z"/>
	<g>
		<defs>
			<circle id="SVGID_1_" cx="128" cy="128.307" r="100.216"/>
		</defs>
		<clipPath id="SVGID_2_">
			<use xlink:href="#SVGID_1_"  overflow="visible"/>
		</clipPath>
		<polyline clip-path="url(#SVGID_2_)" fill="#C25656" points="152.826,74.215 248.769,168.121 164.1,252.557 90.987,172.611 
			133.015,175.686 151.118,153.818 129.597,122.045 137.795,112.141 137.113,78.656 		"/>
	</g>
	<g>
		<path fill-rule="evenodd" clip-rule="evenodd" fill="#AF4848" d="M142.18,80.066c10.873,8.635,11.342,25.557,1.122,35.092
			c-2.094,1.953-4.407,3.689-6.403,5.73c-2.646,2.697-2.704,5.141,0.007,7.791c3.034,2.965,6.396,5.588,9.572,8.404
			c7.375,6.547,10.354,14.549,8.043,24.326c-1.831,7.709-6.566,13.078-13.635,16.205c-12.704,5.615-25.783,6.051-38.776,1.174
			c-10.731-4.023-15.655-13.785-12.853-24.234c1.479-5.502,5.137-9.193,9.99-11.805c6.788-3.66,14.216-4.826,21.795-5.285
			c1.26-0.072,2.53-0.012,4.595-0.012c-2.069-4.457-6.159-7.807-3.982-13.041c-2.755-0.203-4.961-0.238-7.124-0.551
			c-8.969-1.281-16.124-5.268-18.553-14.566c-2.608-9.963-1.31-19.297,7.001-26.461c6.021-5.188,13.34-7.576,21.115-7.873
			c9.869-0.369,19.753-0.105,29.634-0.098c0.393,0,0.793,0.133,1.726,0.305C151.955,79.959,146.148,77.555,142.18,80.066z
			 M123.364,141.916c-6.202,0.15-12.638,1.941-17.801,6.943c-6.685,6.484-6.095,15.27,1.297,20.871
			c9.412,7.133,25.774,6.014,34.121-2.334c6.548-6.543,5.917-15.373-1.548-20.857C134.912,143.217,129.72,141.936,123.364,141.916z
			 M136.624,103.924c-0.631-9.348-3.018-16.32-9.654-21.125c-5.675-4.104-12.158-2.971-15.861,2.551
			c-6.311,9.385-1.708,26.48,8.44,31.387c5.626,2.723,11.577,1.035,14.392-4.568C135.429,109.207,136.036,105.809,136.624,103.924z"
			/>
		<polygon fill="#AF4848" points="184.504,120.523 184.504,104.42 173.866,104.42 173.866,120.523 157.36,120.523 157.36,130.363 
			173.866,130.363 173.866,148.154 184.504,148.154 184.504,130.363 200.928,130.363 200.928,120.523 		"/>
	</g>
	<g>
		<path fill-rule="evenodd" clip-rule="evenodd" fill="#FFFFFF" d="M139.79,79.043c10.871,8.633,11.34,25.557,1.121,35.09
			c-2.097,1.953-4.406,3.689-6.408,5.729c-2.639,2.699-2.698,5.145,0.011,7.793c3.034,2.963,6.397,5.586,9.568,8.404
			c7.377,6.549,10.358,14.551,8.045,24.326c-1.827,7.709-6.566,13.08-13.635,16.205c-12.704,5.619-25.779,6.051-38.771,1.174
			c-10.733-4.023-15.653-13.785-12.854-24.234c1.478-5.502,5.135-9.191,9.989-11.805c6.789-3.66,14.215-4.824,21.799-5.283
			c1.259-0.074,2.525-0.012,4.588-0.012c-2.064-4.459-6.154-7.811-3.982-13.043c-2.753-0.203-4.959-0.238-7.124-0.551
			c-8.964-1.281-16.12-5.268-18.553-14.566c-2.608-9.963-1.314-19.293,7.003-26.461c6.024-5.189,13.336-7.578,21.115-7.871
			c9.865-0.371,19.753-0.107,29.631-0.1c0.396,0,0.794,0.135,1.729,0.305C149.563,78.932,143.755,76.529,139.79,79.043z
			 M120.973,140.893c-6.204,0.15-12.636,1.939-17.796,6.941c-6.689,6.484-6.102,15.268,1.287,20.871
			c9.415,7.133,25.781,6.014,34.129-2.334c6.55-6.545,5.919-15.371-1.555-20.857C132.521,142.189,127.331,140.908,120.973,140.893z
			 M134.23,102.9c-0.629-9.35-3.018-16.322-9.654-21.129c-5.673-4.102-12.158-2.967-15.859,2.553
			c-6.31,9.385-1.708,26.482,8.436,31.389c5.632,2.723,11.582,1.031,14.395-4.57C133.037,108.184,133.644,104.785,134.23,102.9z"/>
		<polygon fill="#FFFFFF" points="182.11,119.502 182.11,103.393 171.47,103.393 171.47,119.502 154.966,119.502 154.966,129.336 
			171.47,129.336 171.47,147.129 182.11,147.129 182.11,129.336 198.534,129.336 198.534,119.502 		"/>
	</g>
</g>
</svg>
