<?xml version="1.0" encoding="utf-8"?>
<!DOCTYPE svg PUBLIC "-//W3C//DTD SVG 1.1//EN" "http://www.w3.org/Graphics/SVG/1.1/DTD/svg11.dtd">
<svg version="1.1" id="Calque_1" xmlns="http://www.w3.org/2000/svg" xmlns:xlink="http://www.w3.org/1999/xlink" x="0px" y="0px"
	 width="256px" height="256px" viewBox="0 0 256 256" enable-background="new 0 0 256 256" xml:space="preserve">
<path fill="#7c4dff" d="M153.471,232.416c0.013,0.107,0.038,0.205,0.038,0.324c0,12.844-11.419,23.26-25.512,23.26s-25.514-10.416-25.514-23.26
	c0-0.109,0.031-0.212,0.031-0.324c-81.602-2.035-102.51-14.129-102.51-28.773c0-4.588,2.201-8.905,7.559-12.77
	c38.576-39.078,50.037-28.256,50.037-86.145c0-38.594,1.734-73.977,52.848-80.348c-1.01-2.131-1.587-4.47-1.587-6.934
	C108.861,7.812,117.433,0,127.997,0c10.562,0,19.138,7.812,19.138,17.447c0,2.463-0.576,4.802-1.589,6.934
	c51.109,6.371,52.848,41.754,52.848,80.348c0,58.058,11.517,46.982,50.377,86.481c5.083,3.778,7.22,7.973,7.22,12.434
	C255.99,218.276,234.53,230.371,153.471,232.416z M127.997,244.379c7.05,0,12.762-5.211,12.762-11.628
	c0-0.033-0.013-0.068-0.013-0.106c-4.168,0.056-8.299,0.113-12.749,0.113c-4.453,0-8.575-0.058-12.749-0.113
	c0,0.038-0.013,0.073-0.013,0.106C115.235,239.168,120.944,244.379,127.997,244.379z M127.997,11.621
	c-3.524,0-6.375,2.604-6.375,5.815c0,3.212,2.85,5.819,6.375,5.819s6.382-2.606,6.382-5.819
	C134.379,14.225,131.521,11.621,127.997,11.621z M240.667,200.215c0,0-9.745-9.973-25.719-23.186
	c-21.805-18.068-29.355-26.633-29.355-72.301c0-44.601-2.674-69.834-57.596-69.834c-54.923,0-57.597,25.233-57.597,69.834
	c0,45.668-7.552,54.246-29.374,72.322c-15.661,12.97-25.51,22.939-25.51,22.939c-2.713,1.958-2.713,3.103-2.713,3.653
	c0,0.716,1.312,17.476,115.194,17.476c113.881,0,115.192-16.76,115.192-17.476C243.189,203.177,243.189,202.092,240.667,200.215z"/>
</svg>
